<svg xmlns="http://www.w3.org/2000/svg" xmlns:xlink="http://www.w3.org/1999/xlink" width="500" zoomAndPan="magnify" viewBox="0 0 375 374.999991" height="500" preserveAspectRatio="xMidYMid meet" version="1.0"><defs><filter x="0%" y="0%" width="100%" height="100%" id="0eb59c6450"><feColorMatrix values="0 0 0 0 1 0 0 0 0 1 0 0 0 0 1 0 0 0 1 0" color-interpolation-filters="sRGB"/></filter><g/><mask id="23ca8a890d"><g filter="url(#0eb59c6450)"><rect x="-37.5" width="450" fill="#000000" y="-37.499999" height="449.999989" fill-opacity="0.2"/></g></mask><clipPath id="b3d6431abd"><path d="M 0.121094 0.398438 L 350.519531 0.398438 L 350.519531 1.359375 L 0.121094 1.359375 Z M 0.121094 0.398438 " clip-rule="nonzero"/></clipPath><clipPath id="636c055196"><rect x="0" width="351" y="0" height="2"/></clipPath><clipPath id="d3fbf0c24a"><path d="M 19.753906 107.375 L 42.226562 107.375 L 42.226562 129.53125 L 19.753906 129.53125 Z M 19.753906 107.375 " clip-rule="nonzero"/></clipPath><clipPath id="c0b1294862"><path d="M 17.679688 120 L 25 120 L 25 127 L 17.679688 127 Z M 17.679688 120 " clip-rule="nonzero"/></clipPath><clipPath id="9f99ed9953"><path d="M 33.699219 105.53125 L 43.570312 105.53125 L 43.570312 115.382812 L 33.699219 115.382812 Z M 33.699219 105.53125 " clip-rule="nonzero"/></clipPath></defs><g mask="url(#23ca8a890d)"><g transform="matrix(1, 0, 0, 1, 9, 170)"><g clip-path="url(#636c055196)"><g clip-path="url(#b3d6431abd)"><path stroke-linecap="butt" transform="matrix(0.75, 0, 0, 0.75, 0.893877, 0.424906)" fill="none" stroke-linejoin="miter" d="M 0.00087216 0.501167 L 465.047778 0.501167 " stroke="#4a4a4a" stroke-width="1" stroke-opacity="1" stroke-miterlimit="4"/></g></g></g></g><g clip-path="url(#d3fbf0c24a)"><path fill="#d88a9b" d="M 30.976562 107.398438 C 30.683594 118.078125 30.449219 118.3125 19.769531 118.605469 C 30.449219 118.898438 30.683594 119.132812 30.976562 129.8125 C 31.269531 119.132812 31.503906 118.898438 42.183594 118.605469 C 31.503906 118.3125 31.269531 118.078125 30.976562 107.398438 " fill-opacity="1" fill-rule="nonzero"/></g><g clip-path="url(#c0b1294862)"><path fill="#d88a9b" d="M 20.914062 120.496094 C 20.828125 123.578125 20.761719 123.644531 17.679688 123.730469 C 20.761719 123.8125 20.828125 123.882812 20.914062 126.960938 C 20.996094 123.882812 21.066406 123.8125 24.144531 123.730469 C 21.066406 123.644531 20.996094 123.578125 20.914062 120.496094 " fill-opacity="1" fill-rule="nonzero"/></g><g clip-path="url(#9f99ed9953)"><path fill="#d88a9b" d="M 38.660156 115.351562 C 38.789062 110.671875 38.890625 110.570312 43.570312 110.441406 C 38.890625 110.3125 38.789062 110.210938 38.660156 105.53125 C 38.53125 110.210938 38.429688 110.3125 33.75 110.441406 C 38.429688 110.570312 38.53125 110.671875 38.660156 115.351562 " fill-opacity="1" fill-rule="nonzero"/></g><g fill="#d88a9b" fill-opacity="1"><g transform="translate(57.729289, 157.174941)"><g><path d="M 21.640625 -28.3125 C 21.535156 -27.300781 21.460938 -26.320312 21.421875 -25.375 C 21.378906 -24.425781 21.359375 -23.703125 21.359375 -23.203125 C 21.359375 -22.554688 21.367188 -21.953125 21.390625 -21.390625 C 21.421875 -20.835938 21.453125 -20.347656 21.484375 -19.921875 L 20.5625 -19.921875 C 20.375 -21.785156 20.117188 -23.253906 19.796875 -24.328125 C 19.472656 -25.410156 18.910156 -26.191406 18.109375 -26.671875 C 17.316406 -27.160156 16.082031 -27.40625 14.40625 -27.40625 L 11.875 -27.40625 C 10.96875 -27.40625 10.28125 -27.328125 9.8125 -27.171875 C 9.351562 -27.023438 9.039062 -26.71875 8.875 -26.25 C 8.71875 -25.789062 8.640625 -25.066406 8.640625 -24.078125 L 8.640625 -4.234375 C 8.640625 -3.273438 8.738281 -2.554688 8.9375 -2.078125 C 9.132812 -1.597656 9.523438 -1.273438 10.109375 -1.109375 C 10.703125 -0.953125 11.5625 -0.847656 12.6875 -0.796875 L 12.6875 0 C 11.988281 -0.0507812 11.101562 -0.0820312 10.03125 -0.09375 C 8.96875 -0.113281 7.890625 -0.125 6.796875 -0.125 C 5.753906 -0.125 4.78125 -0.113281 3.875 -0.09375 C 2.96875 -0.0820312 2.238281 -0.0507812 1.6875 0 L 1.6875 -0.796875 C 2.59375 -0.847656 3.273438 -0.953125 3.734375 -1.109375 C 4.203125 -1.273438 4.515625 -1.597656 4.671875 -2.078125 C 4.835938 -2.554688 4.921875 -3.273438 4.921875 -4.234375 L 4.921875 -24.078125 C 4.921875 -25.066406 4.835938 -25.789062 4.671875 -26.25 C 4.515625 -26.71875 4.203125 -27.039062 3.734375 -27.21875 C 3.273438 -27.394531 2.59375 -27.492188 1.6875 -27.515625 L 1.6875 -28.3125 C 2.664062 -28.289062 3.703125 -28.269531 4.796875 -28.25 C 5.890625 -28.238281 6.96875 -28.226562 8.03125 -28.21875 C 9.101562 -28.207031 10.097656 -28.203125 11.015625 -28.203125 C 11.941406 -28.203125 12.695312 -28.203125 13.28125 -28.203125 C 14.507812 -28.203125 15.898438 -28.207031 17.453125 -28.21875 C 19.015625 -28.226562 20.410156 -28.257812 21.640625 -28.3125 Z M 15.4375 -14.234375 C 15.4375 -14.234375 15.4375 -14.097656 15.4375 -13.828125 C 15.4375 -13.566406 15.4375 -13.4375 15.4375 -13.4375 L 7.4375 -13.4375 C 7.4375 -13.4375 7.4375 -13.566406 7.4375 -13.828125 C 7.4375 -14.097656 7.4375 -14.234375 7.4375 -14.234375 Z M 16.203125 -19.515625 C 16.097656 -17.992188 16.050781 -16.832031 16.0625 -16.03125 C 16.070312 -15.238281 16.078125 -14.507812 16.078125 -13.84375 C 16.078125 -13.175781 16.085938 -12.441406 16.109375 -11.640625 C 16.140625 -10.835938 16.207031 -9.675781 16.3125 -8.15625 L 15.40625 -8.15625 C 15.289062 -9.007812 15.160156 -9.84375 15.015625 -10.65625 C 14.867188 -11.46875 14.546875 -12.132812 14.046875 -12.65625 C 13.554688 -13.175781 12.726562 -13.4375 11.5625 -13.4375 L 11.5625 -14.234375 C 12.4375 -14.234375 13.109375 -14.410156 13.578125 -14.765625 C 14.046875 -15.128906 14.382812 -15.59375 14.59375 -16.15625 C 14.8125 -16.71875 14.957031 -17.296875 15.03125 -17.890625 C 15.113281 -18.492188 15.195312 -19.035156 15.28125 -19.515625 Z M 16.203125 -19.515625 "/></g></g></g><g fill="#d88a9b" fill-opacity="1"><g transform="translate(78.887021, 157.174941)"><g><path d="M 11.875 -28.3125 L 11.875 -27.515625 C 10.96875 -27.492188 10.28125 -27.394531 9.8125 -27.21875 C 9.351562 -27.039062 9.039062 -26.71875 8.875 -26.25 C 8.71875 -25.789062 8.640625 -25.066406 8.640625 -24.078125 L 8.640625 -4.234375 C 8.640625 -3.273438 8.71875 -2.554688 8.875 -2.078125 C 9.039062 -1.597656 9.351562 -1.273438 9.8125 -1.109375 C 10.28125 -0.953125 10.96875 -0.847656 11.875 -0.796875 L 11.875 0 C 11.257812 -0.0507812 10.492188 -0.0820312 9.578125 -0.09375 C 8.660156 -0.113281 7.734375 -0.125 6.796875 -0.125 C 5.753906 -0.125 4.78125 -0.113281 3.875 -0.09375 C 2.96875 -0.0820312 2.238281 -0.0507812 1.6875 0 L 1.6875 -0.796875 C 2.59375 -0.847656 3.273438 -0.953125 3.734375 -1.109375 C 4.203125 -1.273438 4.515625 -1.597656 4.671875 -2.078125 C 4.835938 -2.554688 4.921875 -3.273438 4.921875 -4.234375 L 4.921875 -24.078125 C 4.921875 -25.066406 4.835938 -25.789062 4.671875 -26.25 C 4.515625 -26.71875 4.203125 -27.039062 3.734375 -27.21875 C 3.273438 -27.394531 2.59375 -27.492188 1.6875 -27.515625 L 1.6875 -28.3125 C 2.238281 -28.289062 2.96875 -28.265625 3.875 -28.234375 C 4.78125 -28.210938 5.753906 -28.203125 6.796875 -28.203125 C 7.734375 -28.203125 8.660156 -28.210938 9.578125 -28.234375 C 10.492188 -28.265625 11.257812 -28.289062 11.875 -28.3125 Z M 11.875 -28.3125 "/></g></g></g><g fill="#d88a9b" fill-opacity="1"><g transform="translate(90.845662, 157.174941)"><g><path d="M 26.796875 -28.3125 L 26.796875 -27.515625 C 25.890625 -27.492188 25.203125 -27.363281 24.734375 -27.125 C 24.273438 -26.882812 23.960938 -26.492188 23.796875 -25.953125 C 23.640625 -25.421875 23.5625 -24.664062 23.5625 -23.6875 L 23.5625 0.203125 C 23.394531 0.203125 23.238281 0.203125 23.09375 0.203125 C 22.945312 0.203125 22.796875 0.203125 22.640625 0.203125 L 5.84375 -25.765625 L 5.84375 -4.640625 C 5.84375 -3.679688 5.925781 -2.925781 6.09375 -2.375 C 6.269531 -1.832031 6.617188 -1.445312 7.140625 -1.21875 C 7.660156 -0.988281 8.441406 -0.847656 9.484375 -0.796875 L 9.484375 0 C 9.003906 -0.0507812 8.375 -0.0820312 7.59375 -0.09375 C 6.820312 -0.113281 6.09375 -0.125 5.40625 -0.125 C 4.738281 -0.125 4.0625 -0.113281 3.375 -0.09375 C 2.695312 -0.0820312 2.132812 -0.0507812 1.6875 0 L 1.6875 -0.796875 C 2.59375 -0.847656 3.273438 -0.988281 3.734375 -1.21875 C 4.203125 -1.445312 4.515625 -1.832031 4.671875 -2.375 C 4.835938 -2.925781 4.921875 -3.679688 4.921875 -4.640625 L 4.921875 -24.078125 C 4.921875 -25.066406 4.835938 -25.789062 4.671875 -26.25 C 4.515625 -26.71875 4.203125 -27.039062 3.734375 -27.21875 C 3.273438 -27.394531 2.59375 -27.492188 1.6875 -27.515625 L 1.6875 -28.3125 C 2.132812 -28.289062 2.695312 -28.265625 3.375 -28.234375 C 4.0625 -28.210938 4.738281 -28.203125 5.40625 -28.203125 C 5.988281 -28.203125 6.546875 -28.210938 7.078125 -28.234375 C 7.609375 -28.265625 8.085938 -28.289062 8.515625 -28.3125 L 22.640625 -6.5625 L 22.640625 -23.6875 C 22.640625 -24.664062 22.550781 -25.421875 22.375 -25.953125 C 22.207031 -26.492188 21.863281 -26.882812 21.34375 -27.125 C 20.820312 -27.363281 20.039062 -27.492188 19 -27.515625 L 19 -28.3125 C 19.476562 -28.289062 20.109375 -28.265625 20.890625 -28.234375 C 21.679688 -28.210938 22.410156 -28.203125 23.078125 -28.203125 C 23.773438 -28.203125 24.460938 -28.210938 25.140625 -28.234375 C 25.816406 -28.265625 26.367188 -28.289062 26.796875 -28.3125 Z M 26.796875 -28.3125 "/></g></g></g><g fill="#d88a9b" fill-opacity="1"><g transform="translate(117.482848, 157.174941)"><g><path d="M 14.84375 -28.875 C 17.375 -28.875 19.59375 -28.300781 21.5 -27.15625 C 23.40625 -26.007812 24.882812 -24.363281 25.9375 -22.21875 C 26.988281 -20.070312 27.515625 -17.46875 27.515625 -14.40625 C 27.515625 -11.414062 26.972656 -8.800781 25.890625 -6.5625 C 24.816406 -4.320312 23.316406 -2.570312 21.390625 -1.3125 C 19.472656 -0.0625 17.273438 0.5625 14.796875 0.5625 C 12.265625 0.5625 10.046875 -0.0078125 8.140625 -1.15625 C 6.234375 -2.300781 4.753906 -3.953125 3.703125 -6.109375 C 2.648438 -8.273438 2.125 -10.878906 2.125 -13.921875 C 2.125 -16.910156 2.671875 -19.523438 3.765625 -21.765625 C 4.859375 -24.003906 6.359375 -25.75 8.265625 -27 C 10.171875 -28.25 12.363281 -28.875 14.84375 -28.875 Z M 14.6875 -28.15625 C 12.945312 -28.15625 11.4375 -27.554688 10.15625 -26.359375 C 8.875 -25.160156 7.878906 -23.503906 7.171875 -21.390625 C 6.472656 -19.285156 6.125 -16.847656 6.125 -14.078125 C 6.125 -11.253906 6.515625 -8.796875 7.296875 -6.703125 C 8.085938 -4.609375 9.15625 -2.992188 10.5 -1.859375 C 11.84375 -0.722656 13.328125 -0.15625 14.953125 -0.15625 C 16.691406 -0.15625 18.203125 -0.753906 19.484375 -1.953125 C 20.765625 -3.160156 21.753906 -4.820312 22.453125 -6.9375 C 23.160156 -9.0625 23.515625 -11.492188 23.515625 -14.234375 C 23.515625 -17.085938 23.117188 -19.554688 22.328125 -21.640625 C 21.546875 -23.722656 20.488281 -25.328125 19.15625 -26.453125 C 17.820312 -27.585938 16.332031 -28.15625 14.6875 -28.15625 Z M 14.6875 -28.15625 "/></g></g></g><g fill="#d88a9b" fill-opacity="1"><g transform="translate(145.519898, 157.174941)"><g/></g></g><g fill="#d88a9b" fill-opacity="1"><g transform="translate(153.878903, 157.174941)"><g><path d="M 12.59375 -28.3125 C 17.375 -28.3125 20.921875 -27.117188 23.234375 -24.734375 C 25.554688 -22.347656 26.71875 -18.929688 26.71875 -14.484375 C 26.71875 -11.578125 26.148438 -9.035156 25.015625 -6.859375 C 23.878906 -4.679688 22.234375 -2.992188 20.078125 -1.796875 C 17.921875 -0.597656 15.304688 0 12.234375 0 C 11.835938 0 11.304688 -0.0078125 10.640625 -0.03125 C 9.972656 -0.0625 9.285156 -0.0820312 8.578125 -0.09375 C 7.867188 -0.113281 7.222656 -0.125 6.640625 -0.125 C 5.703125 -0.125 4.78125 -0.113281 3.875 -0.09375 C 2.96875 -0.0820312 2.238281 -0.0507812 1.6875 0 L 1.6875 -0.796875 C 2.59375 -0.847656 3.273438 -0.953125 3.734375 -1.109375 C 4.203125 -1.273438 4.515625 -1.597656 4.671875 -2.078125 C 4.835938 -2.554688 4.921875 -3.273438 4.921875 -4.234375 L 4.921875 -24.078125 C 4.921875 -25.066406 4.835938 -25.789062 4.671875 -26.25 C 4.515625 -26.71875 4.203125 -27.039062 3.734375 -27.21875 C 3.273438 -27.394531 2.59375 -27.492188 1.6875 -27.515625 L 1.6875 -28.3125 C 2.238281 -28.289062 2.96875 -28.257812 3.875 -28.21875 C 4.78125 -28.175781 5.675781 -28.171875 6.5625 -28.203125 C 7.488281 -28.222656 8.539062 -28.242188 9.71875 -28.265625 C 10.894531 -28.296875 11.851562 -28.3125 12.59375 -28.3125 Z M 11.59375 -27.59375 C 10.375 -27.59375 9.578125 -27.363281 9.203125 -26.90625 C 8.828125 -26.457031 8.640625 -25.539062 8.640625 -24.15625 L 8.640625 -4.15625 C 8.640625 -2.769531 8.832031 -1.847656 9.21875 -1.390625 C 9.601562 -0.941406 10.410156 -0.71875 11.640625 -0.71875 C 14.546875 -0.71875 16.796875 -1.242188 18.390625 -2.296875 C 19.992188 -3.347656 21.113281 -4.882812 21.75 -6.90625 C 22.394531 -8.9375 22.71875 -11.40625 22.71875 -14.3125 C 22.71875 -17.300781 22.363281 -19.773438 21.65625 -21.734375 C 20.945312 -23.703125 19.785156 -25.171875 18.171875 -26.140625 C 16.566406 -27.109375 14.375 -27.59375 11.59375 -27.59375 Z M 11.59375 -27.59375 "/></g></g></g><g fill="#d88a9b" fill-opacity="1"><g transform="translate(181.196017, 157.174941)"><g><path d="M 21.640625 -28.3125 C 21.535156 -27.382812 21.460938 -26.476562 21.421875 -25.59375 C 21.378906 -24.71875 21.359375 -24.050781 21.359375 -23.59375 C 21.359375 -23.113281 21.367188 -22.65625 21.390625 -22.21875 C 21.421875 -21.78125 21.453125 -21.414062 21.484375 -21.125 L 20.5625 -21.125 C 20.394531 -22.695312 20.164062 -23.941406 19.875 -24.859375 C 19.582031 -25.773438 19.082031 -26.425781 18.375 -26.8125 C 17.664062 -27.207031 16.609375 -27.40625 15.203125 -27.40625 L 11.875 -27.40625 C 10.96875 -27.40625 10.28125 -27.328125 9.8125 -27.171875 C 9.351562 -27.023438 9.039062 -26.71875 8.875 -26.25 C 8.71875 -25.789062 8.640625 -25.066406 8.640625 -24.078125 L 8.640625 -4.234375 C 8.640625 -3.273438 8.71875 -2.554688 8.875 -2.078125 C 9.039062 -1.597656 9.351562 -1.285156 9.8125 -1.140625 C 10.28125 -0.992188 10.96875 -0.921875 11.875 -0.921875 L 14.796875 -0.921875 C 16.472656 -0.921875 17.742188 -1.144531 18.609375 -1.59375 C 19.484375 -2.050781 20.113281 -2.789062 20.5 -3.8125 C 20.882812 -4.84375 21.171875 -6.238281 21.359375 -8 L 22.28125 -8 C 22.195312 -7.28125 22.15625 -6.320312 22.15625 -5.125 C 22.15625 -4.613281 22.175781 -3.882812 22.21875 -2.9375 C 22.257812 -1.988281 22.332031 -1.007812 22.4375 0 C 21.082031 -0.0507812 19.550781 -0.0820312 17.84375 -0.09375 C 16.132812 -0.113281 14.613281 -0.125 13.28125 -0.125 C 12.695312 -0.125 11.941406 -0.125 11.015625 -0.125 C 10.097656 -0.125 9.101562 -0.113281 8.03125 -0.09375 C 6.96875 -0.0820312 5.890625 -0.0703125 4.796875 -0.0625 C 3.703125 -0.0507812 2.664062 -0.03125 1.6875 0 L 1.6875 -0.796875 C 2.59375 -0.847656 3.273438 -0.953125 3.734375 -1.109375 C 4.203125 -1.273438 4.515625 -1.597656 4.671875 -2.078125 C 4.835938 -2.554688 4.921875 -3.273438 4.921875 -4.234375 L 4.921875 -24.078125 C 4.921875 -25.066406 4.835938 -25.789062 4.671875 -26.25 C 4.515625 -26.71875 4.203125 -27.039062 3.734375 -27.21875 C 3.273438 -27.394531 2.59375 -27.492188 1.6875 -27.515625 L 1.6875 -28.3125 C 2.664062 -28.289062 3.703125 -28.269531 4.796875 -28.25 C 5.890625 -28.238281 6.96875 -28.226562 8.03125 -28.21875 C 9.101562 -28.207031 10.097656 -28.203125 11.015625 -28.203125 C 11.941406 -28.203125 12.695312 -28.203125 13.28125 -28.203125 C 14.507812 -28.203125 15.898438 -28.207031 17.453125 -28.21875 C 19.015625 -28.226562 20.410156 -28.257812 21.640625 -28.3125 Z M 14.765625 -14.640625 C 14.765625 -14.640625 14.765625 -14.503906 14.765625 -14.234375 C 14.765625 -13.972656 14.765625 -13.84375 14.765625 -13.84375 L 7.4375 -13.84375 C 7.4375 -13.84375 7.4375 -13.972656 7.4375 -14.234375 C 7.4375 -14.503906 7.4375 -14.640625 7.4375 -14.640625 Z M 15.921875 -19.921875 C 15.816406 -18.398438 15.769531 -17.238281 15.78125 -16.4375 C 15.789062 -15.632812 15.796875 -14.898438 15.796875 -14.234375 C 15.796875 -13.566406 15.804688 -12.832031 15.828125 -12.03125 C 15.859375 -11.238281 15.929688 -10.082031 16.046875 -8.5625 L 15.125 -8.5625 C 15.007812 -9.414062 14.878906 -10.25 14.734375 -11.0625 C 14.585938 -11.875 14.269531 -12.539062 13.78125 -13.0625 C 13.289062 -13.582031 12.457031 -13.84375 11.28125 -13.84375 L 11.28125 -14.640625 C 12.15625 -14.640625 12.828125 -14.816406 13.296875 -15.171875 C 13.765625 -15.535156 14.101562 -16 14.3125 -16.5625 C 14.53125 -17.125 14.675781 -17.703125 14.75 -18.296875 C 14.832031 -18.898438 14.914062 -19.441406 15 -19.921875 Z M 15.921875 -19.921875 "/></g></g></g><g fill="#d88a9b" fill-opacity="1"><g transform="translate(203.953588, 157.174941)"><g><path d="M 23.6875 -28.3125 C 23.570312 -27.300781 23.492188 -26.320312 23.453125 -25.375 C 23.421875 -24.425781 23.40625 -23.703125 23.40625 -23.203125 C 23.40625 -22.554688 23.414062 -21.953125 23.4375 -21.390625 C 23.46875 -20.835938 23.492188 -20.347656 23.515625 -19.921875 L 22.59375 -19.921875 C 22.40625 -21.785156 22.148438 -23.253906 21.828125 -24.328125 C 21.515625 -25.410156 20.957031 -26.191406 20.15625 -26.671875 C 19.351562 -27.160156 18.113281 -27.40625 16.4375 -27.40625 L 14.28125 -27.40625 L 14.28125 -4.640625 C 14.28125 -3.578125 14.378906 -2.773438 14.578125 -2.234375 C 14.773438 -1.703125 15.164062 -1.34375 15.75 -1.15625 C 16.34375 -0.96875 17.195312 -0.847656 18.3125 -0.796875 L 18.3125 0 C 17.625 -0.0507812 16.742188 -0.0820312 15.671875 -0.09375 C 14.609375 -0.113281 13.53125 -0.125 12.4375 -0.125 C 11.238281 -0.125 10.113281 -0.113281 9.0625 -0.09375 C 8.007812 -0.0820312 7.160156 -0.0507812 6.515625 0 L 6.515625 -0.796875 C 7.640625 -0.847656 8.492188 -0.96875 9.078125 -1.15625 C 9.660156 -1.34375 10.050781 -1.703125 10.25 -2.234375 C 10.457031 -2.773438 10.5625 -3.578125 10.5625 -4.640625 L 10.5625 -27.40625 L 8.40625 -27.40625 C 6.75 -27.40625 5.515625 -27.160156 4.703125 -26.671875 C 3.890625 -26.191406 3.320312 -25.410156 3 -24.328125 C 2.675781 -23.253906 2.421875 -21.785156 2.234375 -19.921875 L 1.3125 -19.921875 C 1.375 -20.347656 1.410156 -20.835938 1.421875 -21.390625 C 1.429688 -21.953125 1.4375 -22.554688 1.4375 -23.203125 C 1.4375 -23.703125 1.414062 -24.425781 1.375 -25.375 C 1.332031 -26.320312 1.257812 -27.300781 1.15625 -28.3125 C 2.28125 -28.289062 3.5 -28.265625 4.8125 -28.234375 C 6.132812 -28.210938 7.460938 -28.203125 8.796875 -28.203125 C 10.128906 -28.203125 11.34375 -28.203125 12.4375 -28.203125 C 13.53125 -28.203125 14.738281 -28.203125 16.0625 -28.203125 C 17.382812 -28.203125 18.710938 -28.210938 20.046875 -28.234375 C 21.378906 -28.265625 22.59375 -28.289062 23.6875 -28.3125 Z M 23.6875 -28.3125 "/></g></g></g><g fill="#d88a9b" fill-opacity="1"><g transform="translate(227.191112, 157.174941)"><g><path d="M 12.921875 -28.515625 L 22.6875 -3.359375 C 23.082031 -2.347656 23.53125 -1.675781 24.03125 -1.34375 C 24.539062 -1.007812 25.007812 -0.828125 25.4375 -0.796875 L 25.4375 0 C 24.90625 -0.0507812 24.25 -0.0820312 23.46875 -0.09375 C 22.695312 -0.113281 21.925781 -0.125 21.15625 -0.125 C 20.113281 -0.125 19.140625 -0.113281 18.234375 -0.09375 C 17.328125 -0.0820312 16.597656 -0.0507812 16.046875 0 L 16.046875 -0.796875 C 17.398438 -0.847656 18.265625 -1.082031 18.640625 -1.5 C 19.015625 -1.914062 18.9375 -2.800781 18.40625 -4.15625 L 10.953125 -24.046875 L 11.59375 -24.5625 L 4.640625 -6.484375 C 4.210938 -5.410156 3.957031 -4.507812 3.875 -3.78125 C 3.800781 -3.050781 3.875 -2.472656 4.09375 -2.046875 C 4.320312 -1.617188 4.707031 -1.3125 5.25 -1.125 C 5.800781 -0.9375 6.488281 -0.828125 7.3125 -0.796875 L 7.3125 0 C 6.570312 -0.0507812 5.796875 -0.0820312 4.984375 -0.09375 C 4.171875 -0.113281 3.414062 -0.125 2.71875 -0.125 C 2.050781 -0.125 1.484375 -0.113281 1.015625 -0.09375 C 0.546875 -0.0820312 0.113281 -0.0507812 -0.28125 0 L -0.28125 -0.796875 C 0.25 -0.929688 0.796875 -1.242188 1.359375 -1.734375 C 1.921875 -2.234375 2.425781 -3.082031 2.875 -4.28125 L 12.28125 -28.515625 C 12.382812 -28.515625 12.488281 -28.515625 12.59375 -28.515625 C 12.707031 -28.515625 12.816406 -28.515625 12.921875 -28.515625 Z M 17.796875 -11.515625 L 17.796875 -10.71875 L 5.875 -10.71875 L 6.28125 -11.515625 Z M 17.796875 -11.515625 "/></g></g></g><g fill="#d88a9b" fill-opacity="1"><g transform="translate(250.788588, 157.174941)"><g><path d="M 11.875 -28.3125 L 11.875 -27.515625 C 10.96875 -27.492188 10.28125 -27.394531 9.8125 -27.21875 C 9.351562 -27.039062 9.039062 -26.71875 8.875 -26.25 C 8.71875 -25.789062 8.640625 -25.066406 8.640625 -24.078125 L 8.640625 -4.234375 C 8.640625 -3.273438 8.71875 -2.554688 8.875 -2.078125 C 9.039062 -1.597656 9.351562 -1.285156 9.8125 -1.140625 C 10.28125 -0.992188 10.96875 -0.921875 11.875 -0.921875 L 14.796875 -0.921875 C 16.054688 -0.921875 17.078125 -1.050781 17.859375 -1.3125 C 18.648438 -1.582031 19.273438 -2.003906 19.734375 -2.578125 C 20.203125 -3.148438 20.554688 -3.914062 20.796875 -4.875 C 21.035156 -5.832031 21.222656 -7.007812 21.359375 -8.40625 L 22.28125 -8.40625 C 22.195312 -7.570312 22.15625 -6.476562 22.15625 -5.125 C 22.15625 -4.613281 22.175781 -3.882812 22.21875 -2.9375 C 22.257812 -1.988281 22.332031 -1.007812 22.4375 0 C 21.082031 -0.0507812 19.550781 -0.0820312 17.84375 -0.09375 C 16.132812 -0.113281 14.613281 -0.125 13.28125 -0.125 C 12.695312 -0.125 11.941406 -0.125 11.015625 -0.125 C 10.097656 -0.125 9.101562 -0.113281 8.03125 -0.09375 C 6.96875 -0.0820312 5.890625 -0.0703125 4.796875 -0.0625 C 3.703125 -0.0507812 2.664062 -0.03125 1.6875 0 L 1.6875 -0.796875 C 2.59375 -0.847656 3.273438 -0.953125 3.734375 -1.109375 C 4.203125 -1.273438 4.515625 -1.597656 4.671875 -2.078125 C 4.835938 -2.554688 4.921875 -3.273438 4.921875 -4.234375 L 4.921875 -24.078125 C 4.921875 -25.066406 4.835938 -25.789062 4.671875 -26.25 C 4.515625 -26.71875 4.203125 -27.039062 3.734375 -27.21875 C 3.273438 -27.394531 2.59375 -27.492188 1.6875 -27.515625 L 1.6875 -28.3125 C 2.238281 -28.289062 2.96875 -28.265625 3.875 -28.234375 C 4.78125 -28.210938 5.753906 -28.203125 6.796875 -28.203125 C 7.734375 -28.203125 8.660156 -28.210938 9.578125 -28.234375 C 10.492188 -28.265625 11.257812 -28.289062 11.875 -28.3125 Z M 11.875 -28.3125 "/></g></g></g><g fill="#d88a9b" fill-opacity="1"><g transform="translate(272.706265, 157.174941)"><g><path d="M 18.40625 0 L 18.40625 -0.796875 C 19.3125 -0.847656 19.992188 -0.953125 20.453125 -1.109375 C 20.921875 -1.273438 21.234375 -1.597656 21.390625 -2.078125 C 21.554688 -2.554688 21.640625 -3.273438 21.640625 -4.234375 L 21.640625 -24.078125 C 21.640625 -25.066406 21.554688 -25.789062 21.390625 -26.25 C 21.234375 -26.71875 20.921875 -27.039062 20.453125 -27.21875 C 19.992188 -27.394531 19.3125 -27.492188 18.40625 -27.515625 L 18.40625 -28.3125 C 19.007812 -28.289062 19.78125 -28.265625 20.71875 -28.234375 C 21.65625 -28.210938 22.578125 -28.203125 23.484375 -28.203125 C 24.523438 -28.203125 25.5 -28.210938 26.40625 -28.234375 C 27.3125 -28.265625 28.039062 -28.289062 28.59375 -28.3125 L 28.59375 -27.515625 C 27.6875 -27.492188 27 -27.394531 26.53125 -27.21875 C 26.070312 -27.039062 25.757812 -26.71875 25.59375 -26.25 C 25.4375 -25.789062 25.359375 -25.066406 25.359375 -24.078125 L 25.359375 -4.234375 C 25.359375 -3.273438 25.4375 -2.554688 25.59375 -2.078125 C 25.757812 -1.597656 26.070312 -1.273438 26.53125 -1.109375 C 27 -0.953125 27.6875 -0.847656 28.59375 -0.796875 L 28.59375 0 C 28.039062 -0.0507812 27.3125 -0.0820312 26.40625 -0.09375 C 25.5 -0.113281 24.523438 -0.125 23.484375 -0.125 C 22.578125 -0.125 21.65625 -0.113281 20.71875 -0.09375 C 19.78125 -0.0820312 19.007812 -0.0507812 18.40625 0 Z M 1.6875 0 L 1.6875 -0.796875 C 2.59375 -0.847656 3.273438 -0.953125 3.734375 -1.109375 C 4.203125 -1.273438 4.515625 -1.597656 4.671875 -2.078125 C 4.835938 -2.554688 4.921875 -3.273438 4.921875 -4.234375 L 4.921875 -24.078125 C 4.921875 -25.066406 4.835938 -25.789062 4.671875 -26.25 C 4.515625 -26.71875 4.203125 -27.039062 3.734375 -27.21875 C 3.273438 -27.394531 2.59375 -27.492188 1.6875 -27.515625 L 1.6875 -28.3125 C 2.238281 -28.289062 2.96875 -28.265625 3.875 -28.234375 C 4.78125 -28.210938 5.753906 -28.203125 6.796875 -28.203125 C 7.734375 -28.203125 8.660156 -28.210938 9.578125 -28.234375 C 10.492188 -28.265625 11.257812 -28.289062 11.875 -28.3125 L 11.875 -27.515625 C 10.96875 -27.492188 10.28125 -27.394531 9.8125 -27.21875 C 9.351562 -27.039062 9.039062 -26.71875 8.875 -26.25 C 8.71875 -25.789062 8.640625 -25.066406 8.640625 -24.078125 L 8.640625 -4.234375 C 8.640625 -3.273438 8.71875 -2.554688 8.875 -2.078125 C 9.039062 -1.597656 9.351562 -1.273438 9.8125 -1.109375 C 10.28125 -0.953125 10.96875 -0.847656 11.875 -0.796875 L 11.875 0 C 11.257812 -0.0507812 10.492188 -0.0820312 9.578125 -0.09375 C 8.660156 -0.113281 7.734375 -0.125 6.796875 -0.125 C 5.753906 -0.125 4.78125 -0.113281 3.875 -0.09375 C 2.96875 -0.0820312 2.238281 -0.0507812 1.6875 0 Z M 7.234375 -13.84375 L 7.234375 -14.640625 L 23.046875 -14.640625 L 23.046875 -13.84375 Z M 7.234375 -13.84375 "/></g></g></g><g fill="#d88a9b" fill-opacity="1"><g transform="translate(301.383235, 157.174941)"><g><path d="M 21.640625 -28.3125 C 21.535156 -27.382812 21.460938 -26.476562 21.421875 -25.59375 C 21.378906 -24.71875 21.359375 -24.050781 21.359375 -23.59375 C 21.359375 -23.113281 21.367188 -22.65625 21.390625 -22.21875 C 21.421875 -21.78125 21.453125 -21.414062 21.484375 -21.125 L 20.5625 -21.125 C 20.394531 -22.695312 20.164062 -23.941406 19.875 -24.859375 C 19.582031 -25.773438 19.082031 -26.425781 18.375 -26.8125 C 17.664062 -27.207031 16.609375 -27.40625 15.203125 -27.40625 L 11.875 -27.40625 C 10.96875 -27.40625 10.28125 -27.328125 9.8125 -27.171875 C 9.351562 -27.023438 9.039062 -26.71875 8.875 -26.25 C 8.71875 -25.789062 8.640625 -25.066406 8.640625 -24.078125 L 8.640625 -4.234375 C 8.640625 -3.273438 8.71875 -2.554688 8.875 -2.078125 C 9.039062 -1.597656 9.351562 -1.285156 9.8125 -1.140625 C 10.28125 -0.992188 10.96875 -0.921875 11.875 -0.921875 L 14.796875 -0.921875 C 16.472656 -0.921875 17.742188 -1.144531 18.609375 -1.59375 C 19.484375 -2.050781 20.113281 -2.789062 20.5 -3.8125 C 20.882812 -4.84375 21.171875 -6.238281 21.359375 -8 L 22.28125 -8 C 22.195312 -7.28125 22.15625 -6.320312 22.15625 -5.125 C 22.15625 -4.613281 22.175781 -3.882812 22.21875 -2.9375 C 22.257812 -1.988281 22.332031 -1.007812 22.4375 0 C 21.082031 -0.0507812 19.550781 -0.0820312 17.84375 -0.09375 C 16.132812 -0.113281 14.613281 -0.125 13.28125 -0.125 C 12.695312 -0.125 11.941406 -0.125 11.015625 -0.125 C 10.097656 -0.125 9.101562 -0.113281 8.03125 -0.09375 C 6.96875 -0.0820312 5.890625 -0.0703125 4.796875 -0.0625 C 3.703125 -0.0507812 2.664062 -0.03125 1.6875 0 L 1.6875 -0.796875 C 2.59375 -0.847656 3.273438 -0.953125 3.734375 -1.109375 C 4.203125 -1.273438 4.515625 -1.597656 4.671875 -2.078125 C 4.835938 -2.554688 4.921875 -3.273438 4.921875 -4.234375 L 4.921875 -24.078125 C 4.921875 -25.066406 4.835938 -25.789062 4.671875 -26.25 C 4.515625 -26.71875 4.203125 -27.039062 3.734375 -27.21875 C 3.273438 -27.394531 2.59375 -27.492188 1.6875 -27.515625 L 1.6875 -28.3125 C 2.664062 -28.289062 3.703125 -28.269531 4.796875 -28.25 C 5.890625 -28.238281 6.96875 -28.226562 8.03125 -28.21875 C 9.101562 -28.207031 10.097656 -28.203125 11.015625 -28.203125 C 11.941406 -28.203125 12.695312 -28.203125 13.28125 -28.203125 C 14.507812 -28.203125 15.898438 -28.207031 17.453125 -28.21875 C 19.015625 -28.226562 20.410156 -28.257812 21.640625 -28.3125 Z M 14.765625 -14.640625 C 14.765625 -14.640625 14.765625 -14.503906 14.765625 -14.234375 C 14.765625 -13.972656 14.765625 -13.84375 14.765625 -13.84375 L 7.4375 -13.84375 C 7.4375 -13.84375 7.4375 -13.972656 7.4375 -14.234375 C 7.4375 -14.503906 7.4375 -14.640625 7.4375 -14.640625 Z M 15.921875 -19.921875 C 15.816406 -18.398438 15.769531 -17.238281 15.78125 -16.4375 C 15.789062 -15.632812 15.796875 -14.898438 15.796875 -14.234375 C 15.796875 -13.566406 15.804688 -12.832031 15.828125 -12.03125 C 15.859375 -11.238281 15.929688 -10.082031 16.046875 -8.5625 L 15.125 -8.5625 C 15.007812 -9.414062 14.878906 -10.25 14.734375 -11.0625 C 14.585938 -11.875 14.269531 -12.539062 13.78125 -13.0625 C 13.289062 -13.582031 12.457031 -13.84375 11.28125 -13.84375 L 11.28125 -14.640625 C 12.15625 -14.640625 12.828125 -14.816406 13.296875 -15.171875 C 13.765625 -15.535156 14.101562 -16 14.3125 -16.5625 C 14.53125 -17.125 14.675781 -17.703125 14.75 -18.296875 C 14.832031 -18.898438 14.914062 -19.441406 15 -19.921875 Z M 15.921875 -19.921875 "/></g></g></g><g fill="#d88a9b" fill-opacity="1"><g transform="translate(141.908198, 198.072189)"><g><path d="M 7.3125 0.390625 C 5.132812 0.390625 3.1875 -0.0195312 1.46875 -0.84375 L 1.46875 -2.53125 C 3.175781 -1.644531 5.125 -1.203125 7.3125 -1.203125 C 8.675781 -1.203125 9.675781 -1.488281 10.3125 -2.0625 C 10.945312 -2.644531 11.273438 -3.421875 11.296875 -4.390625 C 11.296875 -5.296875 10.992188 -5.984375 10.390625 -6.453125 C 9.796875 -6.921875 8.960938 -7.304688 7.890625 -7.609375 L 6.328125 -8.046875 C 5.453125 -8.304688 4.703125 -8.601562 4.078125 -8.9375 C 3.460938 -9.269531 2.953125 -9.753906 2.546875 -10.390625 C 2.140625 -11.023438 1.9375 -11.835938 1.9375 -12.828125 C 1.9375 -14.441406 2.398438 -15.664062 3.328125 -16.5 C 4.253906 -17.332031 5.5625 -17.75 7.25 -17.75 C 8.238281 -17.75 9.117188 -17.65625 9.890625 -17.46875 C 10.660156 -17.289062 11.441406 -17.007812 12.234375 -16.625 L 12.234375 -14.96875 C 10.679688 -15.769531 9.019531 -16.171875 7.25 -16.171875 C 6.050781 -16.171875 5.160156 -15.875 4.578125 -15.28125 C 4.003906 -14.6875 3.71875 -13.882812 3.71875 -12.875 C 3.738281 -11.957031 4.019531 -11.269531 4.5625 -10.8125 C 5.101562 -10.363281 5.910156 -9.992188 6.984375 -9.703125 L 8.578125 -9.265625 C 9.492188 -9.023438 10.273438 -8.726562 10.921875 -8.375 C 11.566406 -8.019531 12.085938 -7.523438 12.484375 -6.890625 C 12.890625 -6.253906 13.09375 -5.429688 13.09375 -4.421875 C 13.070312 -2.929688 12.550781 -1.753906 11.53125 -0.890625 C 10.507812 -0.0351562 9.101562 0.390625 7.3125 0.390625 Z M 7.3125 0.390625 "/></g></g></g><g fill="#d88a9b" fill-opacity="1"><g transform="translate(156.531275, 198.072189)"><g><path d="M 13.4375 -15.796875 L 8.046875 -15.796875 L 8.046875 0 L 6.296875 0 L 6.296875 -15.796875 L 0.921875 -15.796875 L 0.921875 -17.4375 L 13.4375 -17.4375 Z M 13.4375 -15.796875 "/></g></g></g><g fill="#d88a9b" fill-opacity="1"><g transform="translate(170.878446, 198.072189)"><g><path d="M 8.921875 0.390625 C 6.773438 0.390625 5.164062 -0.148438 4.09375 -1.234375 C 3.03125 -2.328125 2.5 -3.878906 2.5 -5.890625 L 2.5 -17.4375 L 4.28125 -17.4375 L 4.28125 -5.890625 C 4.28125 -4.335938 4.664062 -3.164062 5.4375 -2.375 C 6.207031 -1.59375 7.367188 -1.203125 8.921875 -1.203125 C 10.453125 -1.203125 11.601562 -1.59375 12.375 -2.375 C 13.15625 -3.164062 13.546875 -4.335938 13.546875 -5.890625 L 13.546875 -17.4375 L 15.3125 -17.4375 L 15.3125 -5.890625 C 15.3125 -3.878906 14.78125 -2.328125 13.71875 -1.234375 C 12.664062 -0.148438 11.066406 0.390625 8.921875 0.390625 Z M 8.921875 0.390625 "/></g></g></g><g fill="#d88a9b" fill-opacity="1"><g transform="translate(188.697445, 198.072189)"><g><path d="M 8.328125 -17.4375 C 11.117188 -17.4375 13.222656 -16.695312 14.640625 -15.21875 C 16.054688 -13.738281 16.765625 -11.5625 16.765625 -8.6875 C 16.765625 -5.8125 16.054688 -3.644531 14.640625 -2.1875 C 13.234375 -0.726562 11.128906 0 8.328125 0 L 2.59375 0 L 2.59375 -17.4375 Z M 8.328125 -1.59375 C 10.535156 -1.59375 12.191406 -2.164062 13.296875 -3.3125 C 14.410156 -4.457031 14.96875 -6.273438 14.96875 -8.765625 C 14.96875 -11.179688 14.40625 -12.960938 13.28125 -14.109375 C 12.15625 -15.265625 10.503906 -15.84375 8.328125 -15.84375 L 4.375 -15.84375 L 4.375 -1.59375 Z M 8.328125 -1.59375 "/></g></g></g><g fill="#d88a9b" fill-opacity="1"><g transform="translate(206.976291, 198.072189)"><g><path d="M 2.59375 -17.4375 L 4.375 -17.4375 L 4.375 0 L 2.59375 0 Z M 2.59375 -17.4375 "/></g></g></g><g fill="#d88a9b" fill-opacity="1"><g transform="translate(213.942938, 198.072189)"><g><path d="M 9.59375 0.390625 C 7.832031 0.390625 6.335938 -0.00390625 5.109375 -0.796875 C 3.878906 -1.585938 2.957031 -2.664062 2.34375 -4.03125 C 1.726562 -5.40625 1.421875 -6.957031 1.421875 -8.6875 C 1.421875 -10.394531 1.726562 -11.929688 2.34375 -13.296875 C 2.957031 -14.660156 3.878906 -15.742188 5.109375 -16.546875 C 6.335938 -17.347656 7.832031 -17.75 9.59375 -17.75 C 11.320312 -17.75 12.800781 -17.347656 14.03125 -16.546875 C 15.257812 -15.742188 16.179688 -14.65625 16.796875 -13.28125 C 17.421875 -11.90625 17.734375 -10.375 17.734375 -8.6875 C 17.734375 -6.957031 17.421875 -5.40625 16.796875 -4.03125 C 16.179688 -2.664062 15.257812 -1.585938 14.03125 -0.796875 C 12.800781 -0.00390625 11.320312 0.390625 9.59375 0.390625 Z M 9.59375 -1.203125 C 10.90625 -1.203125 12.035156 -1.53125 12.984375 -2.1875 C 13.941406 -2.84375 14.671875 -3.742188 15.171875 -4.890625 C 15.671875 -6.046875 15.921875 -7.335938 15.921875 -8.765625 C 15.921875 -10.140625 15.671875 -11.382812 15.171875 -12.5 C 14.671875 -13.625 13.941406 -14.515625 12.984375 -15.171875 C 12.023438 -15.835938 10.894531 -16.171875 9.59375 -16.171875 C 8.238281 -16.171875 7.082031 -15.835938 6.125 -15.171875 C 5.164062 -14.515625 4.445312 -13.617188 3.96875 -12.484375 C 3.488281 -11.347656 3.25 -10.082031 3.25 -8.6875 C 3.25 -7.269531 3.488281 -5.992188 3.96875 -4.859375 C 4.445312 -3.722656 5.164062 -2.828125 6.125 -2.171875 C 7.082031 -1.523438 8.238281 -1.203125 9.59375 -1.203125 Z M 9.59375 -1.203125 "/></g></g></g><g fill="#d88a9b" fill-opacity="1"><g transform="translate(141.140621, 223.144469)"><g><path d="M 0.578125 -0.125 L 0.65625 -0.125 C 0.707031 -0.125 0.757812 -0.148438 0.8125 -0.203125 C 0.863281 -0.253906 0.910156 -0.316406 0.953125 -0.390625 C 0.992188 -0.460938 1.019531 -0.535156 1.03125 -0.609375 C 1.050781 -0.691406 1.0625 -0.769531 1.0625 -0.84375 L 1.0625 -7.765625 C 1.0625 -7.828125 1.050781 -7.894531 1.03125 -7.96875 C 1.019531 -8.050781 0.992188 -8.128906 0.953125 -8.203125 C 0.910156 -8.273438 0.863281 -8.332031 0.8125 -8.375 C 0.757812 -8.425781 0.695312 -8.453125 0.625 -8.453125 L 0.5625 -8.453125 L 0.5625 -8.578125 L 2.6875 -8.578125 C 3.5 -8.578125 4.128906 -8.398438 4.578125 -8.046875 C 5.035156 -7.691406 5.265625 -7.21875 5.265625 -6.625 C 5.265625 -6.375 5.21875 -6.148438 5.125 -5.953125 C 5.039062 -5.753906 4.929688 -5.578125 4.796875 -5.421875 C 4.671875 -5.265625 4.53125 -5.128906 4.375 -5.015625 C 4.21875 -4.910156 4.066406 -4.828125 3.921875 -4.765625 C 4.285156 -4.691406 4.585938 -4.570312 4.828125 -4.40625 C 5.078125 -4.238281 5.273438 -4.046875 5.421875 -3.828125 C 5.578125 -3.617188 5.6875 -3.394531 5.75 -3.15625 C 5.8125 -2.914062 5.84375 -2.675781 5.84375 -2.4375 C 5.84375 -1.988281 5.757812 -1.609375 5.59375 -1.296875 C 5.425781 -0.992188 5.207031 -0.742188 4.9375 -0.546875 C 4.664062 -0.359375 4.351562 -0.21875 4 -0.125 C 3.644531 -0.0390625 3.28125 0 2.90625 0 L 0.578125 0 Z M 4.953125 -2.359375 C 4.878906 -3.023438 4.648438 -3.539062 4.265625 -3.90625 C 3.890625 -4.269531 3.359375 -4.453125 2.671875 -4.453125 L 1.9375 -4.453125 L 1.9375 -0.421875 L 2.6875 -0.421875 C 3.394531 -0.421875 3.945312 -0.578125 4.34375 -0.890625 C 4.75 -1.210938 4.953125 -1.65625 4.953125 -2.21875 Z M 4.421875 -6.515625 C 4.390625 -7.015625 4.210938 -7.410156 3.890625 -7.703125 C 3.566406 -8.003906 3.132812 -8.15625 2.59375 -8.15625 L 1.9375 -8.15625 L 1.9375 -4.875 L 2.609375 -4.875 C 2.972656 -4.875 3.269531 -4.921875 3.5 -5.015625 C 3.726562 -5.109375 3.910156 -5.226562 4.046875 -5.375 C 4.191406 -5.53125 4.289062 -5.695312 4.34375 -5.875 C 4.394531 -6.0625 4.421875 -6.242188 4.421875 -6.421875 Z M 4.421875 -6.515625 "/></g></g></g><g fill="#d88a9b" fill-opacity="1"><g transform="translate(147.495673, 223.144469)"><g><path d="M 2.671875 1.859375 C 2.546875 2.222656 2.390625 2.46875 2.203125 2.59375 C 2.015625 2.726562 1.820312 2.796875 1.625 2.796875 C 1.5 2.796875 1.382812 2.773438 1.28125 2.734375 C 1.175781 2.703125 1.085938 2.660156 1.015625 2.609375 C 0.941406 2.566406 0.882812 2.523438 0.84375 2.484375 C 0.800781 2.441406 0.773438 2.40625 0.765625 2.375 L 1.203125 1.328125 C 1.242188 1.484375 1.285156 1.597656 1.328125 1.671875 C 1.367188 1.765625 1.425781 1.84375 1.5 1.90625 C 1.582031 1.976562 1.679688 2.015625 1.796875 2.015625 C 2.003906 2.015625 2.164062 1.863281 2.28125 1.5625 L 2.921875 -0.03125 L 0.828125 -4.765625 C 0.785156 -4.867188 0.710938 -4.988281 0.609375 -5.125 C 0.515625 -5.257812 0.378906 -5.328125 0.203125 -5.328125 L 0.203125 -5.453125 L 1.921875 -5.453125 L 1.921875 -5.328125 C 1.890625 -5.328125 1.847656 -5.296875 1.796875 -5.234375 C 1.742188 -5.171875 1.71875 -5.09375 1.71875 -5 C 1.71875 -4.925781 1.734375 -4.859375 1.765625 -4.796875 L 3.359375 -1.125 L 4.90625 -4.875 C 4.925781 -4.9375 4.9375 -4.992188 4.9375 -5.046875 C 4.9375 -5.128906 4.90625 -5.195312 4.84375 -5.25 C 4.789062 -5.300781 4.738281 -5.328125 4.6875 -5.328125 L 4.6875 -5.453125 L 5.9375 -5.453125 L 5.9375 -5.328125 C 5.800781 -5.328125 5.679688 -5.269531 5.578125 -5.15625 C 5.484375 -5.039062 5.40625 -4.910156 5.34375 -4.765625 Z M 2.671875 1.859375 "/></g></g></g><g fill="#d88a9b" fill-opacity="1"><g transform="translate(153.655787, 223.144469)"><g/></g></g><g fill="#d88a9b" fill-opacity="1"><g transform="translate(157.034747, 223.144469)"><g><path d="M 0.578125 -0.125 L 0.65625 -0.125 C 0.707031 -0.125 0.757812 -0.148438 0.8125 -0.203125 C 0.863281 -0.253906 0.910156 -0.316406 0.953125 -0.390625 C 0.992188 -0.460938 1.019531 -0.535156 1.03125 -0.609375 C 1.050781 -0.691406 1.0625 -0.769531 1.0625 -0.84375 L 1.0625 -7.765625 C 1.0625 -7.828125 1.050781 -7.894531 1.03125 -7.96875 C 1.019531 -8.050781 0.992188 -8.128906 0.953125 -8.203125 C 0.910156 -8.273438 0.863281 -8.332031 0.8125 -8.375 C 0.757812 -8.425781 0.695312 -8.453125 0.625 -8.453125 L 0.5625 -8.453125 L 0.5625 -8.578125 L 2.6875 -8.578125 C 3.5 -8.578125 4.128906 -8.398438 4.578125 -8.046875 C 5.035156 -7.691406 5.265625 -7.21875 5.265625 -6.625 C 5.265625 -6.375 5.21875 -6.148438 5.125 -5.953125 C 5.039062 -5.753906 4.929688 -5.578125 4.796875 -5.421875 C 4.671875 -5.265625 4.53125 -5.128906 4.375 -5.015625 C 4.21875 -4.910156 4.066406 -4.828125 3.921875 -4.765625 C 4.285156 -4.691406 4.585938 -4.570312 4.828125 -4.40625 C 5.078125 -4.238281 5.273438 -4.046875 5.421875 -3.828125 C 5.578125 -3.617188 5.6875 -3.394531 5.75 -3.15625 C 5.8125 -2.914062 5.84375 -2.675781 5.84375 -2.4375 C 5.84375 -1.988281 5.757812 -1.609375 5.59375 -1.296875 C 5.425781 -0.992188 5.207031 -0.742188 4.9375 -0.546875 C 4.664062 -0.359375 4.351562 -0.21875 4 -0.125 C 3.644531 -0.0390625 3.28125 0 2.90625 0 L 0.578125 0 Z M 4.953125 -2.359375 C 4.878906 -3.023438 4.648438 -3.539062 4.265625 -3.90625 C 3.890625 -4.269531 3.359375 -4.453125 2.671875 -4.453125 L 1.9375 -4.453125 L 1.9375 -0.421875 L 2.6875 -0.421875 C 3.394531 -0.421875 3.945312 -0.578125 4.34375 -0.890625 C 4.75 -1.210938 4.953125 -1.65625 4.953125 -2.21875 Z M 4.421875 -6.515625 C 4.390625 -7.015625 4.210938 -7.410156 3.890625 -7.703125 C 3.566406 -8.003906 3.132812 -8.15625 2.59375 -8.15625 L 1.9375 -8.15625 L 1.9375 -4.875 L 2.609375 -4.875 C 2.972656 -4.875 3.269531 -4.921875 3.5 -5.015625 C 3.726562 -5.109375 3.910156 -5.226562 4.046875 -5.375 C 4.191406 -5.53125 4.289062 -5.695312 4.34375 -5.875 C 4.394531 -6.0625 4.421875 -6.242188 4.421875 -6.421875 Z M 4.421875 -6.515625 "/></g></g></g><g fill="#d88a9b" fill-opacity="1"><g transform="translate(163.389799, 223.144469)"><g><path d="M 1.296875 -2.625 C 1.335938 -2.320312 1.410156 -2.035156 1.515625 -1.765625 C 1.628906 -1.492188 1.78125 -1.253906 1.96875 -1.046875 C 2.15625 -0.835938 2.382812 -0.664062 2.65625 -0.53125 C 2.925781 -0.40625 3.238281 -0.34375 3.59375 -0.34375 C 3.78125 -0.34375 3.976562 -0.367188 4.1875 -0.421875 C 4.40625 -0.484375 4.601562 -0.566406 4.78125 -0.671875 C 4.96875 -0.773438 5.128906 -0.898438 5.265625 -1.046875 C 5.410156 -1.203125 5.507812 -1.378906 5.5625 -1.578125 L 5.6875 -1.578125 L 5.6875 -0.59375 C 5.632812 -0.59375 5.570312 -0.578125 5.5 -0.546875 C 5.4375 -0.515625 5.363281 -0.472656 5.28125 -0.421875 C 5.101562 -0.316406 4.867188 -0.203125 4.578125 -0.078125 C 4.285156 0.0351562 3.894531 0.09375 3.40625 0.09375 C 3.019531 0.09375 2.648438 0.0351562 2.296875 -0.078125 C 1.941406 -0.191406 1.628906 -0.363281 1.359375 -0.59375 C 1.097656 -0.832031 0.882812 -1.132812 0.71875 -1.5 C 0.5625 -1.863281 0.484375 -2.296875 0.484375 -2.796875 C 0.484375 -3.117188 0.535156 -3.441406 0.640625 -3.765625 C 0.753906 -4.097656 0.921875 -4.394531 1.140625 -4.65625 C 1.359375 -4.925781 1.640625 -5.140625 1.984375 -5.296875 C 2.335938 -5.460938 2.753906 -5.546875 3.234375 -5.546875 C 3.671875 -5.546875 4.050781 -5.472656 4.375 -5.328125 C 4.695312 -5.179688 4.960938 -4.976562 5.171875 -4.71875 C 5.390625 -4.457031 5.550781 -4.148438 5.65625 -3.796875 C 5.757812 -3.441406 5.8125 -3.050781 5.8125 -2.625 Z M 3.1875 -5.125 C 2.882812 -5.125 2.617188 -5.0625 2.390625 -4.9375 C 2.171875 -4.820312 1.984375 -4.664062 1.828125 -4.46875 C 1.671875 -4.28125 1.550781 -4.0625 1.46875 -3.8125 C 1.382812 -3.570312 1.328125 -3.332031 1.296875 -3.09375 L 5 -3.09375 C 4.988281 -3.34375 4.941406 -3.585938 4.859375 -3.828125 C 4.785156 -4.078125 4.671875 -4.296875 4.515625 -4.484375 C 4.367188 -4.671875 4.179688 -4.820312 3.953125 -4.9375 C 3.734375 -5.0625 3.476562 -5.125 3.1875 -5.125 Z M 3.1875 -5.125 "/></g></g></g><g fill="#d88a9b" fill-opacity="1"><g transform="translate(169.692873, 223.144469)"><g><path d="M 4.015625 0 L 4.015625 -0.65625 L 3.953125 -0.59375 C 3.734375 -0.375 3.484375 -0.203125 3.203125 -0.078125 C 2.921875 0.0351562 2.582031 0.09375 2.1875 0.09375 C 1.882812 0.09375 1.625 0.0625 1.40625 0 C 1.1875 -0.0703125 1.003906 -0.171875 0.859375 -0.296875 C 0.722656 -0.429688 0.625 -0.578125 0.5625 -0.734375 C 0.5 -0.898438 0.46875 -1.078125 0.46875 -1.265625 C 0.46875 -1.554688 0.546875 -1.8125 0.703125 -2.03125 C 0.867188 -2.257812 1.101562 -2.460938 1.40625 -2.640625 C 1.707031 -2.816406 2.078125 -2.972656 2.515625 -3.109375 C 2.953125 -3.253906 3.453125 -3.394531 4.015625 -3.53125 C 3.992188 -3.875 3.921875 -4.148438 3.796875 -4.359375 C 3.679688 -4.566406 3.539062 -4.726562 3.375 -4.84375 C 3.21875 -4.957031 3.046875 -5.035156 2.859375 -5.078125 C 2.679688 -5.117188 2.523438 -5.140625 2.390625 -5.140625 C 2.160156 -5.140625 1.960938 -5.101562 1.796875 -5.03125 C 1.628906 -4.957031 1.484375 -4.867188 1.359375 -4.765625 C 1.234375 -4.660156 1.125 -4.539062 1.03125 -4.40625 C 0.945312 -4.28125 0.878906 -4.164062 0.828125 -4.0625 L 0.71875 -4.0625 L 0.71875 -5 C 0.78125 -5.007812 0.84375 -5.03125 0.90625 -5.0625 C 0.96875 -5.101562 1.039062 -5.140625 1.125 -5.171875 C 1.257812 -5.222656 1.4375 -5.296875 1.65625 -5.390625 C 1.882812 -5.492188 2.203125 -5.546875 2.609375 -5.546875 C 3.085938 -5.546875 3.472656 -5.484375 3.765625 -5.359375 C 4.066406 -5.242188 4.296875 -5.085938 4.453125 -4.890625 C 4.609375 -4.691406 4.710938 -4.460938 4.765625 -4.203125 C 4.816406 -3.953125 4.84375 -3.691406 4.84375 -3.421875 L 4.84375 -0.84375 C 4.84375 -0.664062 4.878906 -0.5 4.953125 -0.34375 C 5.035156 -0.195312 5.144531 -0.125 5.28125 -0.125 L 5.28125 0 Z M 4.015625 -1.234375 L 4.015625 -3.09375 L 3.890625 -3.0625 C 3.679688 -3.007812 3.425781 -2.941406 3.125 -2.859375 C 2.820312 -2.773438 2.535156 -2.660156 2.265625 -2.515625 C 2.003906 -2.378906 1.773438 -2.210938 1.578125 -2.015625 C 1.390625 -1.828125 1.296875 -1.609375 1.296875 -1.359375 C 1.296875 -1.085938 1.40625 -0.859375 1.625 -0.671875 C 1.851562 -0.492188 2.148438 -0.40625 2.515625 -0.40625 C 2.804688 -0.40625 3.054688 -0.46875 3.265625 -0.59375 C 3.484375 -0.71875 3.6875 -0.878906 3.875 -1.078125 Z M 4.015625 -1.234375 "/></g></g></g><g fill="#d88a9b" fill-opacity="1"><g transform="translate(175.632047, 223.144469)"><g><path d="M 1.859375 -5.015625 L 1.859375 -1.890625 C 1.859375 -1.660156 1.863281 -1.453125 1.875 -1.265625 C 1.882812 -1.085938 1.90625 -0.9375 1.9375 -0.8125 C 1.96875 -0.695312 2.019531 -0.601562 2.09375 -0.53125 C 2.164062 -0.46875 2.257812 -0.4375 2.375 -0.4375 C 2.5625 -0.4375 2.734375 -0.523438 2.890625 -0.703125 C 3.054688 -0.878906 3.160156 -1.085938 3.203125 -1.328125 L 3.3125 -1.328125 L 3.3125 -0.375 C 3.238281 -0.375 3.175781 -0.347656 3.125 -0.296875 C 3.050781 -0.234375 2.953125 -0.164062 2.828125 -0.09375 C 2.703125 -0.03125 2.515625 0 2.265625 0 C 1.953125 0 1.707031 -0.0546875 1.53125 -0.171875 C 1.363281 -0.296875 1.238281 -0.457031 1.15625 -0.65625 C 1.082031 -0.863281 1.035156 -1.085938 1.015625 -1.328125 C 1.003906 -1.566406 1 -1.8125 1 -2.0625 L 1 -5.015625 L 0.265625 -5.015625 L 0.265625 -5.453125 L 1 -5.453125 L 1 -6.609375 C 1 -6.765625 0.976562 -6.90625 0.9375 -7.03125 C 0.90625 -7.15625 0.78125 -7.222656 0.5625 -7.234375 L 0.5625 -7.359375 L 1.859375 -7.78125 L 1.859375 -5.453125 L 3.3125 -5.453125 L 3.3125 -5.015625 Z M 1.859375 -5.015625 "/></g></g></g><g fill="#d88a9b" fill-opacity="1"><g transform="translate(179.335915, 223.144469)"><g><path d="M 3.75 -4.515625 C 3.644531 -4.679688 3.535156 -4.785156 3.421875 -4.828125 C 3.316406 -4.878906 3.191406 -4.90625 3.046875 -4.90625 C 2.953125 -4.90625 2.847656 -4.878906 2.734375 -4.828125 C 2.628906 -4.785156 2.523438 -4.726562 2.421875 -4.65625 C 2.316406 -4.59375 2.210938 -4.519531 2.109375 -4.4375 C 2.015625 -4.351562 1.929688 -4.28125 1.859375 -4.21875 L 1.859375 -0.828125 C 1.859375 -0.765625 1.863281 -0.691406 1.875 -0.609375 C 1.894531 -0.535156 1.925781 -0.457031 1.96875 -0.375 C 2.007812 -0.300781 2.050781 -0.238281 2.09375 -0.1875 C 2.144531 -0.144531 2.207031 -0.125 2.28125 -0.125 L 2.28125 0 L 0.578125 0 L 0.578125 -0.125 C 0.640625 -0.125 0.695312 -0.144531 0.75 -0.1875 C 0.800781 -0.238281 0.847656 -0.300781 0.890625 -0.375 C 0.929688 -0.457031 0.957031 -0.535156 0.96875 -0.609375 C 0.988281 -0.691406 1 -0.765625 1 -0.828125 L 1 -4.453125 C 1 -4.578125 0.957031 -4.695312 0.875 -4.8125 C 0.800781 -4.9375 0.691406 -5.019531 0.546875 -5.0625 L 0.546875 -5.15625 L 1.859375 -5.546875 L 1.859375 -4.765625 C 1.929688 -4.859375 2.007812 -4.953125 2.09375 -5.046875 C 2.1875 -5.140625 2.285156 -5.222656 2.390625 -5.296875 C 2.503906 -5.367188 2.625 -5.425781 2.75 -5.46875 C 2.882812 -5.519531 3.039062 -5.546875 3.21875 -5.546875 C 3.332031 -5.546875 3.484375 -5.519531 3.671875 -5.46875 C 3.867188 -5.414062 4.023438 -5.359375 4.140625 -5.296875 Z M 3.75 -4.515625 "/></g></g></g><g fill="#d88a9b" fill-opacity="1"><g transform="translate(183.715569, 223.144469)"><g><path d="M 0.765625 0 L 0.765625 -0.125 C 0.835938 -0.125 0.898438 -0.148438 0.953125 -0.203125 C 1.003906 -0.253906 1.046875 -0.316406 1.078125 -0.390625 C 1.109375 -0.460938 1.132812 -0.535156 1.15625 -0.609375 C 1.175781 -0.691406 1.1875 -0.769531 1.1875 -0.84375 L 1.1875 -4.453125 C 1.1875 -4.597656 1.160156 -4.734375 1.109375 -4.859375 C 1.066406 -4.992188 0.941406 -5.066406 0.734375 -5.078125 L 0.734375 -5.203125 L 2.046875 -5.609375 L 2.046875 -0.84375 C 2.046875 -0.769531 2.050781 -0.691406 2.0625 -0.609375 C 2.082031 -0.535156 2.109375 -0.460938 2.140625 -0.390625 C 2.179688 -0.316406 2.226562 -0.253906 2.28125 -0.203125 C 2.332031 -0.148438 2.390625 -0.125 2.453125 -0.125 L 2.453125 0 Z M 0.828125 -6.859375 C 0.828125 -7.035156 0.882812 -7.179688 1 -7.296875 C 1.125 -7.421875 1.269531 -7.484375 1.4375 -7.484375 C 1.613281 -7.484375 1.757812 -7.421875 1.875 -7.296875 C 2 -7.179688 2.0625 -7.035156 2.0625 -6.859375 C 2.0625 -6.691406 2 -6.550781 1.875 -6.4375 C 1.757812 -6.320312 1.613281 -6.265625 1.4375 -6.265625 C 1.269531 -6.265625 1.125 -6.320312 1 -6.4375 C 0.882812 -6.550781 0.828125 -6.691406 0.828125 -6.859375 Z M 0.828125 -6.859375 "/></g></g></g><g fill="#d88a9b" fill-opacity="1"><g transform="translate(186.97757, 223.144469)"><g><path d="M 0.171875 0 L 3.734375 -5 L 1.59375 -5 C 1.445312 -5 1.3125 -4.96875 1.1875 -4.90625 C 1.070312 -4.851562 0.972656 -4.773438 0.890625 -4.671875 C 0.804688 -4.578125 0.742188 -4.476562 0.703125 -4.375 C 0.660156 -4.269531 0.640625 -4.164062 0.640625 -4.0625 L 0.5 -4.0625 L 0.5 -5.453125 L 5.09375 -5.453125 L 1.53125 -0.46875 L 3.953125 -0.46875 C 4.140625 -0.46875 4.296875 -0.5 4.421875 -0.5625 C 4.554688 -0.625 4.664062 -0.695312 4.75 -0.78125 C 4.832031 -0.875 4.890625 -0.976562 4.921875 -1.09375 C 4.960938 -1.207031 4.984375 -1.3125 4.984375 -1.40625 L 5.09375 -1.40625 L 5.09375 0 Z M 0.171875 0 "/></g></g></g><g fill="#d88a9b" fill-opacity="1"><g transform="translate(192.562492, 223.144469)"><g/></g></g><g fill="#d88a9b" fill-opacity="1"><g transform="translate(195.941452, 223.144469)"><g/></g></g><g fill="#d88a9b" fill-opacity="1"><g transform="translate(199.324211, 223.144469)"><g><path d="M 0.578125 -0.125 L 0.65625 -0.125 C 0.71875 -0.125 0.773438 -0.144531 0.828125 -0.1875 C 0.878906 -0.238281 0.925781 -0.300781 0.96875 -0.375 C 1.007812 -0.445312 1.039062 -0.519531 1.0625 -0.59375 C 1.082031 -0.675781 1.09375 -0.75 1.09375 -0.8125 L 1.09375 -7.78125 C 1.09375 -7.832031 1.082031 -7.894531 1.0625 -7.96875 C 1.039062 -8.050781 1.007812 -8.128906 0.96875 -8.203125 C 0.925781 -8.273438 0.878906 -8.332031 0.828125 -8.375 C 0.773438 -8.425781 0.71875 -8.453125 0.65625 -8.453125 L 0.578125 -8.453125 L 0.578125 -8.578125 L 2.453125 -8.578125 L 2.453125 -8.453125 L 2.390625 -8.453125 C 2.316406 -8.453125 2.253906 -8.425781 2.203125 -8.375 C 2.148438 -8.332031 2.109375 -8.273438 2.078125 -8.203125 C 2.046875 -8.128906 2.019531 -8.050781 2 -7.96875 C 1.976562 -7.894531 1.96875 -7.832031 1.96875 -7.78125 L 1.96875 -0.484375 L 4.8125 -0.484375 C 4.976562 -0.484375 5.117188 -0.519531 5.234375 -0.59375 C 5.359375 -0.675781 5.460938 -0.773438 5.546875 -0.890625 C 5.628906 -1.003906 5.6875 -1.128906 5.71875 -1.265625 C 5.757812 -1.398438 5.78125 -1.523438 5.78125 -1.640625 L 5.921875 -1.640625 L 5.921875 0 L 0.578125 0 Z M 0.578125 -0.125 "/></g></g></g><g fill="#d88a9b" fill-opacity="1"><g transform="translate(205.367355, 223.144469)"><g><path d="M 1.296875 -2.625 C 1.335938 -2.320312 1.410156 -2.035156 1.515625 -1.765625 C 1.628906 -1.492188 1.78125 -1.253906 1.96875 -1.046875 C 2.15625 -0.835938 2.382812 -0.664062 2.65625 -0.53125 C 2.925781 -0.40625 3.238281 -0.34375 3.59375 -0.34375 C 3.78125 -0.34375 3.976562 -0.367188 4.1875 -0.421875 C 4.40625 -0.484375 4.601562 -0.566406 4.78125 -0.671875 C 4.96875 -0.773438 5.128906 -0.898438 5.265625 -1.046875 C 5.410156 -1.203125 5.507812 -1.378906 5.5625 -1.578125 L 5.6875 -1.578125 L 5.6875 -0.59375 C 5.632812 -0.59375 5.570312 -0.578125 5.5 -0.546875 C 5.4375 -0.515625 5.363281 -0.472656 5.28125 -0.421875 C 5.101562 -0.316406 4.867188 -0.203125 4.578125 -0.078125 C 4.285156 0.0351562 3.894531 0.09375 3.40625 0.09375 C 3.019531 0.09375 2.648438 0.0351562 2.296875 -0.078125 C 1.941406 -0.191406 1.628906 -0.363281 1.359375 -0.59375 C 1.097656 -0.832031 0.882812 -1.132812 0.71875 -1.5 C 0.5625 -1.863281 0.484375 -2.296875 0.484375 -2.796875 C 0.484375 -3.117188 0.535156 -3.441406 0.640625 -3.765625 C 0.753906 -4.097656 0.921875 -4.394531 1.140625 -4.65625 C 1.359375 -4.925781 1.640625 -5.140625 1.984375 -5.296875 C 2.335938 -5.460938 2.753906 -5.546875 3.234375 -5.546875 C 3.671875 -5.546875 4.050781 -5.472656 4.375 -5.328125 C 4.695312 -5.179688 4.960938 -4.976562 5.171875 -4.71875 C 5.390625 -4.457031 5.550781 -4.148438 5.65625 -3.796875 C 5.757812 -3.441406 5.8125 -3.050781 5.8125 -2.625 Z M 3.1875 -5.125 C 2.882812 -5.125 2.617188 -5.0625 2.390625 -4.9375 C 2.171875 -4.820312 1.984375 -4.664062 1.828125 -4.46875 C 1.671875 -4.28125 1.550781 -4.0625 1.46875 -3.8125 C 1.382812 -3.570312 1.328125 -3.332031 1.296875 -3.09375 L 5 -3.09375 C 4.988281 -3.34375 4.941406 -3.585938 4.859375 -3.828125 C 4.785156 -4.078125 4.671875 -4.296875 4.515625 -4.484375 C 4.367188 -4.671875 4.179688 -4.820312 3.953125 -4.9375 C 3.734375 -5.0625 3.476562 -5.125 3.1875 -5.125 Z M 3.1875 -5.125 "/></g></g></g><g fill="#d88a9b" fill-opacity="1"><g transform="translate(211.670428, 223.144469)"><g><path d="M 8.90625 -0.84375 C 8.90625 -0.769531 8.910156 -0.691406 8.921875 -0.609375 C 8.941406 -0.535156 8.96875 -0.460938 9 -0.390625 C 9.039062 -0.316406 9.082031 -0.253906 9.125 -0.203125 C 9.175781 -0.148438 9.238281 -0.125 9.3125 -0.125 L 9.3125 0 L 7.625 0 L 7.625 -0.125 C 7.6875 -0.125 7.742188 -0.148438 7.796875 -0.203125 C 7.847656 -0.253906 7.894531 -0.316406 7.9375 -0.390625 C 7.976562 -0.460938 8.003906 -0.535156 8.015625 -0.609375 C 8.035156 -0.691406 8.046875 -0.769531 8.046875 -0.84375 L 8.046875 -3.65625 C 8.046875 -3.851562 8.015625 -4.039062 7.953125 -4.21875 C 7.898438 -4.40625 7.816406 -4.566406 7.703125 -4.703125 C 7.597656 -4.835938 7.460938 -4.941406 7.296875 -5.015625 C 7.128906 -5.097656 6.941406 -5.140625 6.734375 -5.140625 C 6.503906 -5.140625 6.300781 -5.085938 6.125 -4.984375 C 5.957031 -4.878906 5.816406 -4.75 5.703125 -4.59375 C 5.597656 -4.4375 5.519531 -4.273438 5.46875 -4.109375 C 5.414062 -3.953125 5.390625 -3.820312 5.390625 -3.71875 L 5.390625 -0.84375 C 5.390625 -0.769531 5.398438 -0.691406 5.421875 -0.609375 C 5.441406 -0.535156 5.46875 -0.460938 5.5 -0.390625 C 5.539062 -0.316406 5.582031 -0.253906 5.625 -0.203125 C 5.675781 -0.148438 5.738281 -0.125 5.8125 -0.125 L 5.8125 0 L 4.140625 0 L 4.140625 -0.125 C 4.191406 -0.125 4.242188 -0.148438 4.296875 -0.203125 C 4.347656 -0.253906 4.394531 -0.316406 4.4375 -0.390625 C 4.476562 -0.460938 4.503906 -0.535156 4.515625 -0.609375 C 4.535156 -0.691406 4.546875 -0.769531 4.546875 -0.84375 L 4.546875 -3.734375 C 4.546875 -3.941406 4.507812 -4.132812 4.4375 -4.3125 C 4.363281 -4.488281 4.265625 -4.632812 4.140625 -4.75 C 4.015625 -4.875 3.867188 -4.96875 3.703125 -5.03125 C 3.546875 -5.101562 3.382812 -5.140625 3.21875 -5.140625 C 3 -5.140625 2.800781 -5.097656 2.625 -5.015625 C 2.457031 -4.929688 2.316406 -4.820312 2.203125 -4.6875 C 2.097656 -4.5625 2.019531 -4.421875 1.96875 -4.265625 C 1.914062 -4.117188 1.890625 -3.972656 1.890625 -3.828125 L 1.890625 -0.84375 C 1.890625 -0.769531 1.894531 -0.691406 1.90625 -0.609375 C 1.925781 -0.535156 1.953125 -0.460938 1.984375 -0.390625 C 2.023438 -0.316406 2.070312 -0.253906 2.125 -0.203125 C 2.175781 -0.148438 2.234375 -0.125 2.296875 -0.125 L 2.296875 0 L 0.625 0 L 0.625 -0.125 C 0.6875 -0.125 0.742188 -0.148438 0.796875 -0.203125 C 0.847656 -0.253906 0.890625 -0.316406 0.921875 -0.390625 C 0.960938 -0.460938 0.992188 -0.535156 1.015625 -0.609375 C 1.035156 -0.691406 1.046875 -0.769531 1.046875 -0.84375 L 1.046875 -4.3125 C 1.046875 -4.382812 1.039062 -4.460938 1.03125 -4.546875 C 1.019531 -4.640625 1 -4.722656 0.96875 -4.796875 C 0.945312 -4.867188 0.90625 -4.929688 0.84375 -4.984375 C 0.78125 -5.035156 0.695312 -5.0625 0.59375 -5.0625 L 0.59375 -5.1875 L 1.890625 -5.609375 L 1.890625 -4.953125 C 2.015625 -5.097656 2.191406 -5.238281 2.421875 -5.375 C 2.648438 -5.519531 2.953125 -5.59375 3.328125 -5.59375 C 3.566406 -5.59375 3.78125 -5.554688 3.96875 -5.484375 C 4.164062 -5.410156 4.332031 -5.320312 4.46875 -5.21875 C 4.613281 -5.113281 4.738281 -4.988281 4.84375 -4.84375 C 4.945312 -4.707031 5.035156 -4.578125 5.109375 -4.453125 C 5.179688 -4.578125 5.265625 -4.707031 5.359375 -4.84375 C 5.453125 -4.976562 5.566406 -5.097656 5.703125 -5.203125 C 5.835938 -5.316406 6 -5.410156 6.1875 -5.484375 C 6.375 -5.554688 6.59375 -5.59375 6.84375 -5.59375 C 7.320312 -5.59375 7.695312 -5.503906 7.96875 -5.328125 C 8.25 -5.148438 8.457031 -4.941406 8.59375 -4.703125 C 8.726562 -4.460938 8.8125 -4.207031 8.84375 -3.9375 C 8.882812 -3.675781 8.90625 -3.457031 8.90625 -3.28125 Z M 8.90625 -0.84375 "/></g></g></g><g fill="#d88a9b" fill-opacity="1"><g transform="translate(221.716349, 223.144469)"><g><path d="M 3.3125 0.09375 C 2.882812 0.09375 2.492188 0.0195312 2.140625 -0.125 C 1.796875 -0.269531 1.5 -0.460938 1.25 -0.703125 C 1.007812 -0.953125 0.820312 -1.242188 0.6875 -1.578125 C 0.550781 -1.921875 0.484375 -2.289062 0.484375 -2.6875 C 0.484375 -3.113281 0.554688 -3.5 0.703125 -3.84375 C 0.847656 -4.195312 1.050781 -4.5 1.3125 -4.75 C 1.570312 -5.007812 1.878906 -5.207031 2.234375 -5.34375 C 2.585938 -5.476562 2.972656 -5.546875 3.390625 -5.546875 C 3.804688 -5.546875 4.1875 -5.476562 4.53125 -5.34375 C 4.882812 -5.207031 5.1875 -5.019531 5.4375 -4.78125 C 5.6875 -4.539062 5.878906 -4.253906 6.015625 -3.921875 C 6.160156 -3.585938 6.234375 -3.222656 6.234375 -2.828125 C 6.234375 -2.453125 6.164062 -2.085938 6.03125 -1.734375 C 5.90625 -1.378906 5.71875 -1.066406 5.46875 -0.796875 C 5.226562 -0.535156 4.925781 -0.320312 4.5625 -0.15625 C 4.207031 0.0078125 3.789062 0.09375 3.3125 0.09375 Z M 3.234375 -5.125 C 2.921875 -5.101562 2.644531 -5.023438 2.40625 -4.890625 C 2.164062 -4.753906 1.96875 -4.582031 1.8125 -4.375 C 1.65625 -4.164062 1.535156 -3.925781 1.453125 -3.65625 C 1.367188 -3.382812 1.328125 -3.109375 1.328125 -2.828125 C 1.328125 -2.515625 1.375 -2.207031 1.46875 -1.90625 C 1.570312 -1.601562 1.71875 -1.332031 1.90625 -1.09375 C 2.09375 -0.863281 2.316406 -0.679688 2.578125 -0.546875 C 2.835938 -0.410156 3.125 -0.34375 3.4375 -0.34375 C 3.757812 -0.34375 4.046875 -0.410156 4.296875 -0.546875 C 4.546875 -0.679688 4.75 -0.859375 4.90625 -1.078125 C 5.070312 -1.304688 5.195312 -1.554688 5.28125 -1.828125 C 5.363281 -2.109375 5.40625 -2.390625 5.40625 -2.671875 C 5.40625 -2.953125 5.359375 -3.238281 5.265625 -3.53125 C 5.179688 -3.820312 5.050781 -4.085938 4.875 -4.328125 C 4.695312 -4.566406 4.46875 -4.757812 4.1875 -4.90625 C 3.914062 -5.050781 3.597656 -5.125 3.234375 -5.125 Z M 3.234375 -5.125 "/></g></g></g><g fill="#d88a9b" fill-opacity="1"><g transform="translate(228.513269, 223.144469)"><g><path d="M 4.8125 -1.484375 C 4.8125 -1.253906 4.753906 -1.046875 4.640625 -0.859375 C 4.523438 -0.671875 4.367188 -0.503906 4.171875 -0.359375 C 3.984375 -0.210938 3.757812 -0.0976562 3.5 -0.015625 C 3.238281 0.0664062 2.957031 0.109375 2.65625 0.109375 C 2.28125 0.109375 1.972656 0.0625 1.734375 -0.03125 C 1.503906 -0.132812 1.304688 -0.238281 1.140625 -0.34375 C 1.023438 -0.414062 0.921875 -0.472656 0.828125 -0.515625 C 0.734375 -0.566406 0.628906 -0.59375 0.515625 -0.59375 L 0.515625 -1.59375 L 0.65625 -1.59375 C 0.675781 -1.46875 0.75 -1.332031 0.875 -1.1875 C 1 -1.039062 1.148438 -0.90625 1.328125 -0.78125 C 1.503906 -0.664062 1.695312 -0.566406 1.90625 -0.484375 C 2.125 -0.398438 2.34375 -0.359375 2.5625 -0.359375 C 2.71875 -0.359375 2.875 -0.375 3.03125 -0.40625 C 3.195312 -0.445312 3.347656 -0.503906 3.484375 -0.578125 C 3.617188 -0.660156 3.734375 -0.757812 3.828125 -0.875 C 3.921875 -0.988281 3.96875 -1.128906 3.96875 -1.296875 C 3.96875 -1.460938 3.914062 -1.601562 3.8125 -1.71875 C 3.71875 -1.84375 3.597656 -1.953125 3.453125 -2.046875 C 3.304688 -2.140625 3.140625 -2.21875 2.953125 -2.28125 C 2.765625 -2.351562 2.570312 -2.421875 2.375 -2.484375 C 2.15625 -2.554688 1.929688 -2.632812 1.703125 -2.71875 C 1.472656 -2.800781 1.265625 -2.898438 1.078125 -3.015625 C 0.898438 -3.140625 0.753906 -3.285156 0.640625 -3.453125 C 0.523438 -3.617188 0.46875 -3.820312 0.46875 -4.0625 C 0.46875 -4.257812 0.503906 -4.445312 0.578125 -4.625 C 0.648438 -4.8125 0.769531 -4.96875 0.9375 -5.09375 C 1.113281 -5.226562 1.332031 -5.335938 1.59375 -5.421875 C 1.863281 -5.503906 2.191406 -5.546875 2.578125 -5.546875 C 2.910156 -5.546875 3.171875 -5.515625 3.359375 -5.453125 C 3.546875 -5.398438 3.703125 -5.347656 3.828125 -5.296875 C 3.898438 -5.242188 3.972656 -5.207031 4.046875 -5.1875 C 4.128906 -5.164062 4.21875 -5.15625 4.3125 -5.15625 L 4.3125 -4.25 L 4.21875 -4.25 C 4.0625 -4.539062 3.820312 -4.757812 3.5 -4.90625 C 3.175781 -5.050781 2.847656 -5.125 2.515625 -5.125 C 2.296875 -5.125 2.109375 -5.09375 1.953125 -5.03125 C 1.796875 -4.976562 1.664062 -4.910156 1.5625 -4.828125 C 1.46875 -4.742188 1.394531 -4.648438 1.34375 -4.546875 C 1.300781 -4.441406 1.28125 -4.335938 1.28125 -4.234375 C 1.28125 -4.085938 1.316406 -3.960938 1.390625 -3.859375 C 1.472656 -3.753906 1.585938 -3.660156 1.734375 -3.578125 C 1.878906 -3.503906 2.039062 -3.429688 2.21875 -3.359375 C 2.394531 -3.296875 2.582031 -3.234375 2.78125 -3.171875 C 3.019531 -3.097656 3.257812 -3.015625 3.5 -2.921875 C 3.75 -2.828125 3.96875 -2.710938 4.15625 -2.578125 C 4.351562 -2.453125 4.507812 -2.300781 4.625 -2.125 C 4.75 -1.945312 4.8125 -1.734375 4.8125 -1.484375 Z M 4.8125 -1.484375 "/></g></g></g></svg>